<mxfile host="app.diagrams.net" modified="2021-10-25T17:53:01.932Z" agent="5.0 (X11; Linux x86_64) AppleWebKit/537.36 (KHTML, like Gecko) Chrome/95.0.4638.54 Safari/537.36" etag="W0_CZBv0p3K3uViPVPXg" version="15.5.9" type="github">
  <diagram id="Ag26jjxQlUrxGi_fAM3p" name="Page-1">
    <mxGraphModel dx="870" dy="341" grid="1" gridSize="10" guides="1" tooltips="1" connect="1" arrows="1" fold="1" page="1" pageScale="1" pageWidth="827" pageHeight="1169" math="0" shadow="0">
      <root>
        <mxCell id="0" />
        <mxCell id="1" parent="0" />
        <mxCell id="MCnuN7g1gk3N_JBsFDVG-4" style="edgeStyle=orthogonalEdgeStyle;rounded=0;orthogonalLoop=1;jettySize=auto;html=1;exitX=0;exitY=0.5;exitDx=0;exitDy=0;entryX=0.5;entryY=0;entryDx=0;entryDy=0;" edge="1" parent="1" source="MCnuN7g1gk3N_JBsFDVG-1" target="MCnuN7g1gk3N_JBsFDVG-2">
          <mxGeometry relative="1" as="geometry" />
        </mxCell>
        <mxCell id="MCnuN7g1gk3N_JBsFDVG-5" style="edgeStyle=orthogonalEdgeStyle;rounded=0;orthogonalLoop=1;jettySize=auto;html=1;exitX=1;exitY=0.5;exitDx=0;exitDy=0;entryX=0.5;entryY=0;entryDx=0;entryDy=0;" edge="1" parent="1" source="MCnuN7g1gk3N_JBsFDVG-1" target="MCnuN7g1gk3N_JBsFDVG-3">
          <mxGeometry relative="1" as="geometry" />
        </mxCell>
        <mxCell id="MCnuN7g1gk3N_JBsFDVG-24" style="edgeStyle=orthogonalEdgeStyle;rounded=0;orthogonalLoop=1;jettySize=auto;html=1;exitX=0;exitY=0;exitDx=0;exitDy=0;entryX=0.5;entryY=0;entryDx=0;entryDy=0;" edge="1" parent="1" source="MCnuN7g1gk3N_JBsFDVG-1" target="MCnuN7g1gk3N_JBsFDVG-1">
          <mxGeometry relative="1" as="geometry">
            <mxPoint x="260" y="30" as="targetPoint" />
            <Array as="points">
              <mxPoint x="286" y="20" />
              <mxPoint x="300" y="20" />
            </Array>
          </mxGeometry>
        </mxCell>
        <mxCell id="MCnuN7g1gk3N_JBsFDVG-1" value="" style="ellipse;whiteSpace=wrap;html=1;aspect=fixed;fillColor=#000000;" vertex="1" parent="1">
          <mxGeometry x="280" y="40" width="40" height="40" as="geometry" />
        </mxCell>
        <mxCell id="MCnuN7g1gk3N_JBsFDVG-11" style="edgeStyle=orthogonalEdgeStyle;rounded=0;orthogonalLoop=1;jettySize=auto;html=1;exitX=0;exitY=1;exitDx=0;exitDy=0;entryX=0.5;entryY=0;entryDx=0;entryDy=0;" edge="1" parent="1" source="MCnuN7g1gk3N_JBsFDVG-2" target="MCnuN7g1gk3N_JBsFDVG-9">
          <mxGeometry relative="1" as="geometry" />
        </mxCell>
        <mxCell id="MCnuN7g1gk3N_JBsFDVG-13" style="edgeStyle=orthogonalEdgeStyle;rounded=0;orthogonalLoop=1;jettySize=auto;html=1;exitX=1;exitY=0.5;exitDx=0;exitDy=0;entryX=0.5;entryY=0;entryDx=0;entryDy=0;" edge="1" parent="1" source="MCnuN7g1gk3N_JBsFDVG-2" target="MCnuN7g1gk3N_JBsFDVG-10">
          <mxGeometry relative="1" as="geometry">
            <Array as="points">
              <mxPoint x="270" y="140" />
              <mxPoint x="270" y="240" />
            </Array>
          </mxGeometry>
        </mxCell>
        <mxCell id="MCnuN7g1gk3N_JBsFDVG-2" value="" style="ellipse;whiteSpace=wrap;html=1;aspect=fixed;fillColor=#000000;" vertex="1" parent="1">
          <mxGeometry x="160" y="120" width="40" height="40" as="geometry" />
        </mxCell>
        <mxCell id="MCnuN7g1gk3N_JBsFDVG-8" style="edgeStyle=orthogonalEdgeStyle;rounded=0;orthogonalLoop=1;jettySize=auto;html=1;" edge="1" parent="1" source="MCnuN7g1gk3N_JBsFDVG-3" target="MCnuN7g1gk3N_JBsFDVG-3">
          <mxGeometry relative="1" as="geometry">
            <mxPoint x="620" y="110" as="targetPoint" />
            <Array as="points">
              <mxPoint x="580" y="120" />
              <mxPoint x="580" y="150" />
            </Array>
          </mxGeometry>
        </mxCell>
        <mxCell id="MCnuN7g1gk3N_JBsFDVG-14" style="edgeStyle=orthogonalEdgeStyle;rounded=0;orthogonalLoop=1;jettySize=auto;html=1;exitX=0;exitY=1;exitDx=0;exitDy=0;entryX=1;entryY=0;entryDx=0;entryDy=0;" edge="1" parent="1" source="MCnuN7g1gk3N_JBsFDVG-3" target="MCnuN7g1gk3N_JBsFDVG-10">
          <mxGeometry relative="1" as="geometry" />
        </mxCell>
        <mxCell id="MCnuN7g1gk3N_JBsFDVG-20" style="edgeStyle=orthogonalEdgeStyle;rounded=0;orthogonalLoop=1;jettySize=auto;html=1;exitX=0.5;exitY=1;exitDx=0;exitDy=0;entryX=0.5;entryY=0;entryDx=0;entryDy=0;" edge="1" parent="1" source="MCnuN7g1gk3N_JBsFDVG-3" target="MCnuN7g1gk3N_JBsFDVG-18">
          <mxGeometry relative="1" as="geometry" />
        </mxCell>
        <mxCell id="MCnuN7g1gk3N_JBsFDVG-35" style="edgeStyle=orthogonalEdgeStyle;rounded=0;orthogonalLoop=1;jettySize=auto;html=1;exitX=0;exitY=0.5;exitDx=0;exitDy=0;entryX=0;entryY=0;entryDx=0;entryDy=0;" edge="1" parent="1" source="MCnuN7g1gk3N_JBsFDVG-3" target="MCnuN7g1gk3N_JBsFDVG-3">
          <mxGeometry relative="1" as="geometry">
            <mxPoint x="440" y="110" as="targetPoint" />
            <Array as="points">
              <mxPoint x="480" y="150" />
              <mxPoint x="460" y="150" />
              <mxPoint x="460" y="126" />
            </Array>
          </mxGeometry>
        </mxCell>
        <mxCell id="MCnuN7g1gk3N_JBsFDVG-3" value="" style="ellipse;whiteSpace=wrap;html=1;aspect=fixed;fillColor=#000000;" vertex="1" parent="1">
          <mxGeometry x="480" y="120" width="40" height="40" as="geometry" />
        </mxCell>
        <mxCell id="MCnuN7g1gk3N_JBsFDVG-6" style="edgeStyle=orthogonalEdgeStyle;rounded=0;orthogonalLoop=1;jettySize=auto;html=1;exitX=0;exitY=0.5;exitDx=0;exitDy=0;entryX=0;entryY=0;entryDx=0;entryDy=0;" edge="1" parent="1" source="MCnuN7g1gk3N_JBsFDVG-2" target="MCnuN7g1gk3N_JBsFDVG-2">
          <mxGeometry relative="1" as="geometry">
            <mxPoint x="100" y="80" as="targetPoint" />
            <Array as="points">
              <mxPoint x="110" y="140" />
              <mxPoint x="110" y="100" />
              <mxPoint x="166" y="100" />
            </Array>
          </mxGeometry>
        </mxCell>
        <mxCell id="MCnuN7g1gk3N_JBsFDVG-30" style="edgeStyle=orthogonalEdgeStyle;rounded=0;orthogonalLoop=1;jettySize=auto;html=1;exitX=1;exitY=0.5;exitDx=0;exitDy=0;entryX=1;entryY=1;entryDx=0;entryDy=0;" edge="1" parent="1" source="MCnuN7g1gk3N_JBsFDVG-9" target="MCnuN7g1gk3N_JBsFDVG-9">
          <mxGeometry relative="1" as="geometry">
            <mxPoint x="160" y="260.19047619047615" as="targetPoint" />
            <Array as="points">
              <mxPoint x="120" y="240" />
              <mxPoint x="140" y="240" />
              <mxPoint x="140" y="274" />
            </Array>
          </mxGeometry>
        </mxCell>
        <mxCell id="MCnuN7g1gk3N_JBsFDVG-9" value="" style="ellipse;whiteSpace=wrap;html=1;aspect=fixed;fillColor=#000000;" vertex="1" parent="1">
          <mxGeometry x="80" y="240" width="40" height="40" as="geometry" />
        </mxCell>
        <mxCell id="MCnuN7g1gk3N_JBsFDVG-17" style="edgeStyle=orthogonalEdgeStyle;rounded=0;orthogonalLoop=1;jettySize=auto;html=1;exitX=1;exitY=0.5;exitDx=0;exitDy=0;entryX=1;entryY=1;entryDx=0;entryDy=0;" edge="1" parent="1" source="MCnuN7g1gk3N_JBsFDVG-10" target="MCnuN7g1gk3N_JBsFDVG-10">
          <mxGeometry relative="1" as="geometry">
            <mxPoint x="420" y="260" as="targetPoint" />
            <Array as="points">
              <mxPoint x="360" y="260" />
              <mxPoint x="360" y="274" />
            </Array>
          </mxGeometry>
        </mxCell>
        <mxCell id="MCnuN7g1gk3N_JBsFDVG-10" value="" style="ellipse;whiteSpace=wrap;html=1;aspect=fixed;fillColor=#000000;" vertex="1" parent="1">
          <mxGeometry x="280" y="240" width="40" height="40" as="geometry" />
        </mxCell>
        <mxCell id="MCnuN7g1gk3N_JBsFDVG-15" style="edgeStyle=orthogonalEdgeStyle;rounded=0;orthogonalLoop=1;jettySize=auto;html=1;exitX=0;exitY=0.5;exitDx=0;exitDy=0;entryX=0;entryY=1;entryDx=0;entryDy=0;" edge="1" parent="1" source="MCnuN7g1gk3N_JBsFDVG-10" target="MCnuN7g1gk3N_JBsFDVG-10">
          <mxGeometry relative="1" as="geometry">
            <Array as="points">
              <mxPoint x="250" y="260" />
              <mxPoint x="250" y="274" />
            </Array>
          </mxGeometry>
        </mxCell>
        <mxCell id="MCnuN7g1gk3N_JBsFDVG-23" style="edgeStyle=orthogonalEdgeStyle;rounded=0;orthogonalLoop=1;jettySize=auto;html=1;exitX=0;exitY=0.5;exitDx=0;exitDy=0;entryX=0;entryY=1;entryDx=0;entryDy=0;" edge="1" parent="1" source="MCnuN7g1gk3N_JBsFDVG-18" target="MCnuN7g1gk3N_JBsFDVG-18">
          <mxGeometry relative="1" as="geometry">
            <mxPoint x="540" y="320" as="targetPoint" />
            <Array as="points">
              <mxPoint x="450" y="260" />
              <mxPoint x="450" y="274" />
            </Array>
          </mxGeometry>
        </mxCell>
        <mxCell id="MCnuN7g1gk3N_JBsFDVG-18" value="" style="ellipse;whiteSpace=wrap;html=1;aspect=fixed;fillColor=#000000;" vertex="1" parent="1">
          <mxGeometry x="480" y="240" width="40" height="40" as="geometry" />
        </mxCell>
        <mxCell id="MCnuN7g1gk3N_JBsFDVG-21" style="edgeStyle=orthogonalEdgeStyle;rounded=0;orthogonalLoop=1;jettySize=auto;html=1;exitX=1;exitY=0;exitDx=0;exitDy=0;entryX=1;entryY=0.5;entryDx=0;entryDy=0;" edge="1" parent="1" source="MCnuN7g1gk3N_JBsFDVG-18" target="MCnuN7g1gk3N_JBsFDVG-18">
          <mxGeometry relative="1" as="geometry">
            <Array as="points">
              <mxPoint x="550" y="246" />
              <mxPoint x="550" y="260" />
            </Array>
          </mxGeometry>
        </mxCell>
        <mxCell id="MCnuN7g1gk3N_JBsFDVG-25" value="t2" style="text;html=1;align=center;verticalAlign=middle;resizable=0;points=[];autosize=1;strokeColor=none;fillColor=none;" vertex="1" parent="1">
          <mxGeometry x="265" width="30" height="20" as="geometry" />
        </mxCell>
        <mxCell id="MCnuN7g1gk3N_JBsFDVG-26" value="t0" style="text;html=1;align=center;verticalAlign=middle;resizable=0;points=[];autosize=1;strokeColor=none;fillColor=none;" vertex="1" parent="1">
          <mxGeometry x="175" y="40" width="30" height="20" as="geometry" />
        </mxCell>
        <mxCell id="MCnuN7g1gk3N_JBsFDVG-27" value="t1" style="text;html=1;align=center;verticalAlign=middle;resizable=0;points=[];autosize=1;strokeColor=none;fillColor=none;" vertex="1" parent="1">
          <mxGeometry x="395" y="40" width="30" height="20" as="geometry" />
        </mxCell>
        <mxCell id="MCnuN7g1gk3N_JBsFDVG-28" value="t2" style="text;html=1;align=center;verticalAlign=middle;resizable=0;points=[];autosize=1;strokeColor=none;fillColor=none;" vertex="1" parent="1">
          <mxGeometry x="105" y="80" width="30" height="20" as="geometry" />
        </mxCell>
        <mxCell id="MCnuN7g1gk3N_JBsFDVG-29" value="t0" style="text;html=1;align=center;verticalAlign=middle;resizable=0;points=[];autosize=1;strokeColor=none;fillColor=none;" vertex="1" parent="1">
          <mxGeometry x="65" y="170" width="30" height="20" as="geometry" />
        </mxCell>
        <mxCell id="MCnuN7g1gk3N_JBsFDVG-31" value="t2" style="text;html=1;align=center;verticalAlign=middle;resizable=0;points=[];autosize=1;strokeColor=none;fillColor=none;" vertex="1" parent="1">
          <mxGeometry x="135" y="250" width="30" height="20" as="geometry" />
        </mxCell>
        <mxCell id="MCnuN7g1gk3N_JBsFDVG-32" value="t3" style="text;html=1;align=center;verticalAlign=middle;resizable=0;points=[];autosize=1;strokeColor=none;fillColor=none;" vertex="1" parent="1">
          <mxGeometry x="235" y="240" width="30" height="20" as="geometry" />
        </mxCell>
        <mxCell id="MCnuN7g1gk3N_JBsFDVG-33" value="t2" style="text;html=1;align=center;verticalAlign=middle;resizable=0;points=[];autosize=1;strokeColor=none;fillColor=none;" vertex="1" parent="1">
          <mxGeometry x="325" y="240" width="30" height="20" as="geometry" />
        </mxCell>
        <mxCell id="MCnuN7g1gk3N_JBsFDVG-34" value="t3" style="text;html=1;align=center;verticalAlign=middle;resizable=0;points=[];autosize=1;strokeColor=none;fillColor=none;" vertex="1" parent="1">
          <mxGeometry x="555" y="100" width="30" height="20" as="geometry" />
        </mxCell>
        <mxCell id="MCnuN7g1gk3N_JBsFDVG-36" value="t2" style="text;html=1;align=center;verticalAlign=middle;resizable=0;points=[];autosize=1;strokeColor=none;fillColor=none;" vertex="1" parent="1">
          <mxGeometry x="435" y="110" width="30" height="20" as="geometry" />
        </mxCell>
        <mxCell id="MCnuN7g1gk3N_JBsFDVG-37" value="t1" style="text;html=1;align=center;verticalAlign=middle;resizable=0;points=[];autosize=1;strokeColor=none;fillColor=none;" vertex="1" parent="1">
          <mxGeometry x="500" y="200" width="30" height="20" as="geometry" />
        </mxCell>
        <mxCell id="MCnuN7g1gk3N_JBsFDVG-38" value="t3" style="text;html=1;align=center;verticalAlign=middle;resizable=0;points=[];autosize=1;strokeColor=none;fillColor=none;" vertex="1" parent="1">
          <mxGeometry x="555" y="250" width="30" height="20" as="geometry" />
        </mxCell>
        <mxCell id="MCnuN7g1gk3N_JBsFDVG-40" value="t2&lt;br&gt;" style="text;html=1;align=center;verticalAlign=middle;resizable=0;points=[];autosize=1;strokeColor=none;fillColor=none;" vertex="1" parent="1">
          <mxGeometry x="425" y="240" width="30" height="20" as="geometry" />
        </mxCell>
        <mxCell id="MCnuN7g1gk3N_JBsFDVG-41" value="(0,1,2)" style="text;html=1;align=center;verticalAlign=middle;resizable=0;points=[];autosize=1;strokeColor=none;fillColor=none;" vertex="1" parent="1">
          <mxGeometry x="470" y="280" width="50" height="20" as="geometry" />
        </mxCell>
        <mxCell id="MCnuN7g1gk3N_JBsFDVG-42" value="(0,2,1)" style="text;html=1;align=center;verticalAlign=middle;resizable=0;points=[];autosize=1;strokeColor=none;fillColor=none;" vertex="1" parent="1">
          <mxGeometry x="275" y="280" width="50" height="20" as="geometry" />
        </mxCell>
        <mxCell id="MCnuN7g1gk3N_JBsFDVG-43" value="(1,1,1)" style="text;html=1;align=center;verticalAlign=middle;resizable=0;points=[];autosize=1;strokeColor=none;fillColor=none;" vertex="1" parent="1">
          <mxGeometry x="500" y="160" width="50" height="20" as="geometry" />
        </mxCell>
        <mxCell id="MCnuN7g1gk3N_JBsFDVG-44" value="(2,1,0)" style="text;html=1;align=center;verticalAlign=middle;resizable=0;points=[];autosize=1;strokeColor=none;fillColor=none;" vertex="1" parent="1">
          <mxGeometry x="265" y="80" width="50" height="20" as="geometry" />
        </mxCell>
        <mxCell id="MCnuN7g1gk3N_JBsFDVG-45" value="(1,2,0)" style="text;html=1;align=center;verticalAlign=middle;resizable=0;points=[];autosize=1;strokeColor=none;fillColor=none;" vertex="1" parent="1">
          <mxGeometry x="145" y="160" width="50" height="20" as="geometry" />
        </mxCell>
        <mxCell id="MCnuN7g1gk3N_JBsFDVG-48" value="(0,3,0)" style="text;html=1;align=center;verticalAlign=middle;resizable=0;points=[];autosize=1;strokeColor=none;fillColor=none;" vertex="1" parent="1">
          <mxGeometry x="75" y="280" width="50" height="20" as="geometry" />
        </mxCell>
        <mxCell id="MCnuN7g1gk3N_JBsFDVG-49" value="t1" style="text;html=1;align=center;verticalAlign=middle;resizable=0;points=[];autosize=1;strokeColor=none;fillColor=none;" vertex="1" parent="1">
          <mxGeometry x="235" y="140" width="30" height="20" as="geometry" />
        </mxCell>
        <mxCell id="MCnuN7g1gk3N_JBsFDVG-50" value="t0" style="text;html=1;align=center;verticalAlign=middle;resizable=0;points=[];autosize=1;strokeColor=none;fillColor=none;" vertex="1" parent="1">
          <mxGeometry x="335" y="130" width="30" height="20" as="geometry" />
        </mxCell>
      </root>
    </mxGraphModel>
  </diagram>
</mxfile>
